<svg xmlns="http://www.w3.org/2000/svg" width="375" viewBox="0 0 375 375" height="375" version="1.0"><defs><clipPath id="a"><path d="M 170 131.941406 L 212 131.941406 L 212 234 L 170 234 Z M 170 131.941406"/></clipPath><clipPath id="b"><path d="M 190 185 L 280.164062 185 L 280.164062 238 L 190 238 Z M 190 185"/></clipPath><clipPath id="c"><path d="M 101.664062 185 L 192 185 L 192 238 L 101.664062 238 Z M 101.664062 185"/></clipPath></defs><path fill="#ED5B2D" d="M 133.53125 149.167969 C 133.53125 149.167969 131.128906 179.847656 148.332031 202.164062 C 165.539062 224.480469 195.835938 229.996094 195.835938 229.996094 C 195.835938 229.996094 198.242188 199.320312 181.039062 177 C 163.835938 154.683594 133.53125 149.167969 133.53125 149.167969 Z M 133.53125 149.167969"/><path fill="#ED5B2D" d="M 200.835938 177 C 183.632812 199.320312 186.039062 229.996094 186.039062 229.996094 C 186.039062 229.996094 216.335938 224.480469 233.542969 202.164062 C 250.75 179.847656 248.34375 149.167969 248.34375 149.167969 C 248.34375 149.167969 218.042969 154.683594 200.835938 177 Z M 200.835938 177"/><g clip-path="url(#a)"><path fill="#291B25" d="M 170.296875 182.949219 C 170.296875 211.121094 190.9375 233.960938 190.9375 233.960938 C 190.9375 233.960938 211.578125 211.121094 211.578125 182.949219 C 211.578125 154.777344 190.9375 131.941406 190.9375 131.941406 C 190.9375 131.941406 170.296875 154.777344 170.296875 182.949219 Z M 170.296875 182.949219"/></g><g clip-path="url(#b)"><path fill="#F7B9A1" d="M 225.339844 193.308594 C 200.507812 206.648438 190.144531 235.625 190.144531 235.625 C 190.144531 235.625 220.054688 242.972656 244.886719 229.632812 C 269.722656 216.289062 280.082031 187.3125 280.082031 187.3125 C 280.082031 187.3125 250.171875 179.964844 225.339844 193.308594 Z M 225.339844 193.308594"/></g><g clip-path="url(#c)"><path fill="#F7B9A1" d="M 156.535156 193.308594 C 131.699219 179.964844 101.792969 187.3125 101.792969 187.3125 C 101.792969 187.3125 112.152344 216.289062 136.984375 229.632812 C 161.820312 242.972656 191.730469 235.625 191.730469 235.625 C 191.730469 235.625 181.371094 206.648438 156.535156 193.308594 Z M 156.535156 193.308594"/></g><g fill="#291B25"><g><g><path d="M 5.875 -34.296875 L 5.875 0 L 10.34375 0 L 10.34375 -17.046875 L 25.53125 -17.046875 L 25.53125 -19.3125 L 10.34375 -19.3125 L 10.34375 -31.609375 L 28.03125 -31.609375 L 28.03125 -34.296875 Z M 5.875 -34.296875" transform="translate(54.603 280.378)"/></g></g></g><g fill="#291B25"><g><g><path d="M 3.921875 -24.5 L 3.921875 0 L 8.078125 0 L 8.078125 -14.796875 C 8.078125 -16.140625 8.234375 -17.273438 8.546875 -18.203125 C 8.859375 -19.128906 9.257812 -19.882812 9.75 -20.46875 C 10.238281 -21.0625 10.773438 -21.488281 11.359375 -21.75 C 11.953125 -22.007812 12.523438 -22.140625 13.078125 -22.140625 C 13.828125 -22.140625 14.519531 -21.894531 15.15625 -21.40625 C 15.800781 -20.914062 16.269531 -20.460938 16.5625 -20.046875 L 18.234375 -23.078125 C 17.929688 -23.472656 17.578125 -23.800781 17.171875 -24.0625 C 16.765625 -24.320312 16.359375 -24.523438 15.953125 -24.671875 C 15.546875 -24.816406 15.171875 -24.910156 14.828125 -24.953125 C 14.484375 -25.003906 14.226562 -25.03125 14.0625 -25.03125 C 12.6875 -25.03125 11.539062 -24.65625 10.625 -23.90625 C 9.71875 -23.15625 8.96875 -22.046875 8.375 -20.578125 L 8.078125 -20.578125 L 8.078125 -24.5 Z M 3.921875 -24.5" transform="translate(83.804 280.378)"/></g></g></g><g fill="#291B25"><g><g><path d="M 25.671875 -11.171875 L 25.671875 -12.203125 C 25.671875 -14.390625 25.359375 -16.28125 24.734375 -17.875 C 24.117188 -19.476562 23.28125 -20.800781 22.21875 -21.84375 C 21.15625 -22.894531 19.921875 -23.679688 18.515625 -24.203125 C 17.117188 -24.722656 15.632812 -24.984375 14.0625 -24.984375 C 12.394531 -24.984375 10.859375 -24.695312 9.453125 -24.125 C 8.046875 -23.5625 6.820312 -22.726562 5.78125 -21.625 C 4.738281 -20.53125 3.921875 -19.207031 3.328125 -17.65625 C 2.742188 -16.113281 2.453125 -14.359375 2.453125 -12.390625 C 2.453125 -10.765625 2.703125 -9.175781 3.203125 -7.625 C 3.710938 -6.070312 4.484375 -4.679688 5.515625 -3.453125 C 6.546875 -2.222656 7.851562 -1.238281 9.4375 -0.5 C 11.019531 0.226562 12.890625 0.59375 15.046875 0.59375 C 17.128906 0.59375 19.050781 0.226562 20.8125 -0.5 C 22.582031 -1.238281 24.125 -2.296875 25.4375 -3.671875 L 23.859375 -5.25 C 23.171875 -4.65625 22.523438 -4.113281 21.921875 -3.625 C 21.316406 -3.132812 20.703125 -2.722656 20.078125 -2.390625 C 19.460938 -2.066406 18.820312 -1.816406 18.15625 -1.640625 C 17.488281 -1.460938 16.742188 -1.375 15.921875 -1.375 C 15.003906 -1.375 14.03125 -1.507812 13 -1.78125 C 11.976562 -2.0625 11.023438 -2.5625 10.140625 -3.28125 C 9.253906 -4 8.519531 -4.992188 7.9375 -6.265625 C 7.351562 -7.546875 7.0625 -9.179688 7.0625 -11.171875 Z M 7.0625 -13.125 C 7.0625 -14.4375 7.195312 -15.703125 7.46875 -16.921875 C 7.75 -18.148438 8.175781 -19.238281 8.75 -20.1875 C 9.320312 -21.132812 10.046875 -21.894531 10.921875 -22.46875 C 11.804688 -23.039062 12.851562 -23.328125 14.0625 -23.328125 C 16.382812 -23.328125 18.1875 -22.421875 19.46875 -20.609375 C 20.757812 -18.796875 21.40625 -16.300781 21.40625 -13.125 Z M 7.0625 -13.125" transform="translate(102.227 280.378)"/></g></g></g><g fill="#291B25"><g><g><path d="M 19.546875 -18.90625 C 19.546875 -19.789062 19.316406 -20.609375 18.859375 -21.359375 C 18.398438 -22.109375 17.769531 -22.753906 16.96875 -23.296875 C 16.175781 -23.835938 15.25 -24.257812 14.1875 -24.5625 C 13.125 -24.875 11.988281 -25.03125 10.78125 -25.03125 C 9.632812 -25.03125 8.5625 -24.882812 7.5625 -24.59375 C 6.570312 -24.300781 5.707031 -23.859375 4.96875 -23.265625 C 4.238281 -22.679688 3.660156 -21.957031 3.234375 -21.09375 C 2.804688 -20.226562 2.59375 -19.222656 2.59375 -18.078125 C 2.59375 -16.515625 2.953125 -15.273438 3.671875 -14.359375 C 4.390625 -13.441406 5.285156 -12.703125 6.359375 -12.140625 C 7.441406 -11.585938 8.613281 -11.140625 9.875 -10.796875 C 11.132812 -10.460938 12.300781 -10.085938 13.375 -9.671875 C 14.457031 -9.265625 15.359375 -8.75 16.078125 -8.125 C 16.796875 -7.507812 17.15625 -6.664062 17.15625 -5.59375 C 17.15625 -5.132812 17.078125 -4.660156 16.921875 -4.171875 C 16.773438 -3.679688 16.503906 -3.226562 16.109375 -2.8125 C 15.722656 -2.40625 15.1875 -2.0625 14.5 -1.78125 C 13.8125 -1.507812 12.945312 -1.375 11.90625 -1.375 C 10.601562 -1.375 9.5 -1.578125 8.59375 -1.984375 C 7.695312 -2.390625 6.960938 -2.878906 6.390625 -3.453125 C 5.816406 -4.023438 5.40625 -4.601562 5.15625 -5.1875 C 4.914062 -5.78125 4.796875 -6.269531 4.796875 -6.65625 L 1.609375 -6.65625 C 1.609375 -5.75 1.820312 -4.859375 2.25 -3.984375 C 2.675781 -3.117188 3.320312 -2.34375 4.1875 -1.65625 C 5.050781 -0.976562 6.113281 -0.429688 7.375 -0.015625 C 8.632812 0.390625 10.097656 0.59375 11.765625 0.59375 C 14.765625 0.59375 17.023438 -0.0664062 18.546875 -1.390625 C 20.066406 -2.710938 20.828125 -4.453125 20.828125 -6.609375 C 20.828125 -8.179688 20.457031 -9.441406 19.71875 -10.390625 C 18.988281 -11.335938 18.066406 -12.097656 16.953125 -12.671875 C 15.835938 -13.242188 14.632812 -13.707031 13.34375 -14.0625 C 12.0625 -14.425781 10.863281 -14.800781 9.75 -15.1875 C 8.632812 -15.582031 7.707031 -16.054688 6.96875 -16.609375 C 6.238281 -17.160156 5.875 -17.945312 5.875 -18.96875 C 5.875 -19.382812 5.957031 -19.828125 6.125 -20.296875 C 6.289062 -20.773438 6.566406 -21.21875 6.953125 -21.625 C 7.347656 -22.039062 7.867188 -22.382812 8.515625 -22.65625 C 9.171875 -22.9375 9.988281 -23.078125 10.96875 -23.078125 C 11.957031 -23.078125 12.8125 -22.9375 13.53125 -22.65625 C 14.25 -22.382812 14.851562 -22.039062 15.34375 -21.625 C 15.832031 -21.21875 16.191406 -20.769531 16.421875 -20.28125 C 16.648438 -19.789062 16.765625 -19.332031 16.765625 -18.90625 Z M 19.546875 -18.90625" transform="translate(130.057 280.378)"/></g></g></g><g fill="#291B25"><g><g><path d="M 3.921875 -34.296875 L 3.921875 0 L 8.078125 0 L 8.078125 -14.15625 C 8.078125 -14.8125 8.125 -15.613281 8.21875 -16.5625 C 8.320312 -17.507812 8.59375 -18.421875 9.03125 -19.296875 C 9.476562 -20.179688 10.140625 -20.941406 11.015625 -21.578125 C 11.898438 -22.222656 13.128906 -22.546875 14.703125 -22.546875 C 15.804688 -22.546875 16.691406 -22.335938 17.359375 -21.921875 C 18.035156 -21.515625 18.550781 -20.96875 18.90625 -20.28125 C 19.269531 -19.59375 19.507812 -18.789062 19.625 -17.875 C 19.738281 -16.96875 19.796875 -16.023438 19.796875 -15.046875 L 19.796875 0 L 23.96875 0 L 23.96875 -16.171875 C 23.96875 -17.992188 23.703125 -19.484375 23.171875 -20.640625 C 22.648438 -21.804688 22 -22.71875 21.21875 -23.375 C 20.4375 -24.03125 19.578125 -24.46875 18.640625 -24.6875 C 17.710938 -24.914062 16.820312 -25.03125 15.96875 -25.03125 C 14.832031 -25.03125 13.632812 -24.8125 12.375 -24.375 C 11.113281 -23.9375 9.925781 -23.097656 8.8125 -21.859375 L 8.28125 -21.171875 L 8.078125 -21.171875 L 8.078125 -34.296875 Z M 3.921875 -34.296875" transform="translate(153.28 280.378)"/></g></g></g><g fill="#291B25"><g><g><path d="M 9.21875 -34.296875 L 5.875 -34.296875 L 5.875 0 L 8.03125 0 L 8.03125 -27.984375 L 8.234375 -27.984375 L 23.375 0.59375 L 24.25 0.59375 L 39.734375 -27.78125 L 39.9375 -27.78125 L 39.9375 0 L 44.390625 0 L 44.390625 -34.296875 L 41.015625 -34.296875 L 25.140625 -4.84375 L 24.9375 -4.84375 Z M 9.21875 -34.296875" transform="translate(180.866 280.378)"/></g></g></g><g fill="#291B25"><g><g><path d="M 27.828125 -12.203125 C 27.828125 -10.503906 27.53125 -8.878906 26.9375 -7.328125 C 26.351562 -5.773438 25.515625 -4.410156 24.421875 -3.234375 C 23.328125 -2.054688 22.003906 -1.125 20.453125 -0.4375 C 18.898438 0.25 17.160156 0.59375 15.234375 0.59375 C 13.273438 0.59375 11.503906 0.242188 9.921875 -0.453125 C 8.335938 -1.160156 7 -2.101562 5.90625 -3.28125 C 4.8125 -4.457031 3.960938 -5.820312 3.359375 -7.375 C 2.753906 -8.925781 2.453125 -10.535156 2.453125 -12.203125 C 2.453125 -13.898438 2.753906 -15.523438 3.359375 -17.078125 C 3.960938 -18.628906 4.8125 -19.992188 5.90625 -21.171875 C 7 -22.347656 8.335938 -23.285156 9.921875 -23.984375 C 11.503906 -24.679688 13.273438 -25.03125 15.234375 -25.03125 C 17.160156 -25.03125 18.898438 -24.679688 20.453125 -23.984375 C 22.003906 -23.285156 23.328125 -22.347656 24.421875 -21.171875 C 25.515625 -19.992188 26.351562 -18.628906 26.9375 -17.078125 C 27.53125 -15.523438 27.828125 -13.898438 27.828125 -12.203125 Z M 23.171875 -12.203125 C 23.171875 -14.484375 22.925781 -16.332031 22.4375 -17.75 C 21.945312 -19.175781 21.3125 -20.28125 20.53125 -21.0625 C 19.75 -21.851562 18.882812 -22.382812 17.9375 -22.65625 C 16.988281 -22.9375 16.070312 -23.078125 15.1875 -23.078125 C 14.300781 -23.078125 13.382812 -22.9375 12.4375 -22.65625 C 11.5 -22.382812 10.628906 -21.851562 9.828125 -21.0625 C 9.023438 -20.28125 8.367188 -19.175781 7.859375 -17.75 C 7.359375 -16.332031 7.109375 -14.484375 7.109375 -12.203125 C 7.109375 -9.941406 7.359375 -8.101562 7.859375 -6.6875 C 8.367188 -5.269531 9.023438 -4.164062 9.828125 -3.375 C 10.628906 -2.59375 11.5 -2.0625 12.4375 -1.78125 C 13.382812 -1.507812 14.300781 -1.375 15.1875 -1.375 C 16.070312 -1.375 16.988281 -1.507812 17.9375 -1.78125 C 18.882812 -2.0625 19.75 -2.59375 20.53125 -3.375 C 21.3125 -4.164062 21.945312 -5.269531 22.4375 -6.6875 C 22.925781 -8.101562 23.171875 -9.941406 23.171875 -12.203125 Z M 23.171875 -12.203125" transform="translate(230.842 280.378)"/></g></g></g><g fill="#291B25"><g><g><path d="M 27.828125 -12.203125 C 27.828125 -10.503906 27.53125 -8.878906 26.9375 -7.328125 C 26.351562 -5.773438 25.515625 -4.410156 24.421875 -3.234375 C 23.328125 -2.054688 22.003906 -1.125 20.453125 -0.4375 C 18.898438 0.25 17.160156 0.59375 15.234375 0.59375 C 13.273438 0.59375 11.503906 0.242188 9.921875 -0.453125 C 8.335938 -1.160156 7 -2.101562 5.90625 -3.28125 C 4.8125 -4.457031 3.960938 -5.820312 3.359375 -7.375 C 2.753906 -8.925781 2.453125 -10.535156 2.453125 -12.203125 C 2.453125 -13.898438 2.753906 -15.523438 3.359375 -17.078125 C 3.960938 -18.628906 4.8125 -19.992188 5.90625 -21.171875 C 7 -22.347656 8.335938 -23.285156 9.921875 -23.984375 C 11.503906 -24.679688 13.273438 -25.03125 15.234375 -25.03125 C 17.160156 -25.03125 18.898438 -24.679688 20.453125 -23.984375 C 22.003906 -23.285156 23.328125 -22.347656 24.421875 -21.171875 C 25.515625 -19.992188 26.351562 -18.628906 26.9375 -17.078125 C 27.53125 -15.523438 27.828125 -13.898438 27.828125 -12.203125 Z M 23.171875 -12.203125 C 23.171875 -14.484375 22.925781 -16.332031 22.4375 -17.75 C 21.945312 -19.175781 21.3125 -20.28125 20.53125 -21.0625 C 19.75 -21.851562 18.882812 -22.382812 17.9375 -22.65625 C 16.988281 -22.9375 16.070312 -23.078125 15.1875 -23.078125 C 14.300781 -23.078125 13.382812 -22.9375 12.4375 -22.65625 C 11.5 -22.382812 10.628906 -21.851562 9.828125 -21.0625 C 9.023438 -20.28125 8.367188 -19.175781 7.859375 -17.75 C 7.359375 -16.332031 7.109375 -14.484375 7.109375 -12.203125 C 7.109375 -9.941406 7.359375 -8.101562 7.859375 -6.6875 C 8.367188 -5.269531 9.023438 -4.164062 9.828125 -3.375 C 10.628906 -2.59375 11.5 -2.0625 12.4375 -1.78125 C 13.382812 -1.507812 14.300781 -1.375 15.1875 -1.375 C 16.070312 -1.375 16.988281 -1.507812 17.9375 -1.78125 C 18.882812 -2.0625 19.75 -2.59375 20.53125 -3.375 C 21.3125 -4.164062 21.945312 -5.269531 22.4375 -6.6875 C 22.925781 -8.101562 23.171875 -9.941406 23.171875 -12.203125 Z M 23.171875 -12.203125" transform="translate(260.827 280.378)"/></g></g></g><g fill="#291B25"><g><g><path d="M 25.671875 -34.296875 L 21.515625 -34.296875 L 21.515625 -20.484375 L 21.3125 -20.484375 C 20.988281 -21.328125 20.554688 -22.035156 20.015625 -22.609375 C 19.472656 -23.179688 18.859375 -23.644531 18.171875 -24 C 17.492188 -24.363281 16.769531 -24.625 16 -24.78125 C 15.226562 -24.945312 14.453125 -25.03125 13.671875 -25.03125 C 12.035156 -25.03125 10.53125 -24.726562 9.15625 -24.125 C 7.789062 -23.519531 6.609375 -22.660156 5.609375 -21.546875 C 4.609375 -20.441406 3.832031 -19.101562 3.28125 -17.53125 C 2.726562 -15.96875 2.453125 -14.222656 2.453125 -12.296875 C 2.453125 -10.335938 2.726562 -8.566406 3.28125 -6.984375 C 3.832031 -5.398438 4.609375 -4.039062 5.609375 -2.90625 C 6.609375 -1.78125 7.789062 -0.914062 9.15625 -0.3125 C 10.53125 0.289062 12.035156 0.59375 13.671875 0.59375 C 17.523438 0.59375 20.070312 -0.925781 21.3125 -3.96875 L 21.515625 -3.96875 L 21.515625 0 L 25.671875 0 Z M 21.515625 -9.796875 C 21.515625 -8.722656 21.332031 -7.703125 20.96875 -6.734375 C 20.613281 -5.773438 20.132812 -4.941406 19.53125 -4.234375 C 18.925781 -3.535156 18.207031 -2.976562 17.375 -2.5625 C 16.539062 -2.15625 15.648438 -1.953125 14.703125 -1.953125 C 13.648438 -1.953125 12.664062 -2.140625 11.75 -2.515625 C 10.84375 -2.898438 10.046875 -3.5 9.359375 -4.3125 C 8.671875 -5.125 8.125 -6.179688 7.71875 -7.484375 C 7.3125 -8.796875 7.109375 -10.367188 7.109375 -12.203125 C 7.109375 -14.066406 7.3125 -15.648438 7.71875 -16.953125 C 8.125 -18.253906 8.675781 -19.320312 9.375 -20.15625 C 10.082031 -20.988281 10.894531 -21.59375 11.8125 -21.96875 C 12.726562 -22.351562 13.691406 -22.546875 14.703125 -22.546875 C 15.617188 -22.546875 16.484375 -22.351562 17.296875 -21.96875 C 18.109375 -21.59375 18.828125 -21.035156 19.453125 -20.296875 C 20.078125 -19.566406 20.578125 -18.679688 20.953125 -17.640625 C 21.328125 -16.597656 21.515625 -15.40625 21.515625 -14.0625 Z M 21.515625 -9.796875" transform="translate(290.813 280.378)"/></g></g></g></svg>